# xmcd
#
# Track frame offsets:
#	150
#	17580
#	41552
#	49955
#	72117
#	91192
#	136577
#	149975
#	157707
#	182402
#	191205
#	225345
#	247045
#	258017
#	268770
#
# Disc length: 3711 seconds
#
# Revision: 1
# Processed by: cddbd v1.5.1PL0 Copyright (c) Steve Scherf et al.
# Submitted via: CDex 1.50Beta5
#
DISCID=c60e7d0f
DTITLE=三軒茶屋’S - 365:A TRIBUTE TO THE STALIN
DYEAR=2001
DGENRE=Rock
TTITLE0=三軒茶屋’S/STOP GIRL
TTITLE1=BUKK/ワルシャワの幻想
TTITLE2=犬神サーカス団/STOP JAP
TTITLE3=R.O.M/先天性労働者
TTITLE4=大槻ケンジと電車/包丁とマンジュウ
TTITLE5=赤犬/虫
TTITLE6=CYBER PROJECT/猟奇ハンター
TTITLE7=KENZI&THE TRIPS/豚に真珠
TTITLE8=PANTA&MUSCLE POLICE/おかあさん いい加減あなたの顔はわすれてしまいました
TTITLE9=キューピークレイジー/アザラシ
TTITLE10=Loopus/FISH INN
TTITLE11=THUG LIFE/廃魚
TTITLE12=Kidz Legend,The/爆裂ヘッド
TTITLE13=BRAWLS/水銀
TTITLE14=Lolita No.18/ロマンチスト
EXTD=
EXTT0=
EXTT1=
EXTT2=
EXTT3=
EXTT4=
EXTT5=
EXTT6=
EXTT7=
EXTT8=
EXTT9=
EXTT10=
EXTT11=
EXTT12=
EXTT13=
EXTT14=
PLAYORDER=
